<svg xmlns="http://www.w3.org/2000/svg" viewBox="0 0 1280 640" width="1280" height="640">
  <defs>
    <!-- Warm gradient for illustrated style -->
    <linearGradient id="bgGradient" x1="0%" y1="0%" x2="100%" y2="100%">
      <stop offset="0%" style="stop-color:#fef9f3"/>
      <stop offset="50%" style="stop-color:#fdf4e7"/>
      <stop offset="100%" style="stop-color:#fef6ed"/>
    </linearGradient>

    <!-- Organic blob filter -->
    <filter id="goo">
      <feGaussianBlur in="SourceGraphic" stdDeviation="2" result="blur"/>
      <feColorMatrix in="blur" mode="matrix" values="1 0 0 0 0  0 1 0 0 0  0 0 1 0 0  0 0 0 18 -7"/>
    </filter>

    <!-- Soft shadow -->
    <filter id="softShadow" x="-20%" y="-20%" width="140%" height="140%">
      <feDropShadow dx="0" dy="4" stdDeviation="8" flood-color="#c9a87c" flood-opacity="0.15"/>
    </filter>

    <!-- Memory node gradient -->
    <linearGradient id="memoryGrad" x1="0%" y1="0%" x2="100%" y2="100%">
      <stop offset="0%" style="stop-color:#e8d5b7"/>
      <stop offset="100%" style="stop-color:#d4bc94"/>
    </linearGradient>

    <!-- Connection gradient -->
    <linearGradient id="connGrad" x1="0%" y1="0%" x2="100%" y2="0%">
      <stop offset="0%" style="stop-color:#c9a87c;stop-opacity:0.6"/>
      <stop offset="50%" style="stop-color:#b8956a;stop-opacity:0.8"/>
      <stop offset="100%" style="stop-color:#c9a87c;stop-opacity:0.6"/>
    </linearGradient>
  </defs>

  <!-- Background -->
  <rect width="1280" height="640" fill="url(#bgGradient)"/>

  <!-- Decorative organic shapes (hand-drawn aesthetic) -->
  <!-- Top left flowing curve -->
  <path d="M0,120 Q80,80 160,100 Q240,120 280,80 Q320,40 400,60"
        fill="none" stroke="#e8d5b7" stroke-width="3" stroke-linecap="round" opacity="0.6"/>

  <!-- Bottom right flowing curve -->
  <path d="M1280,520 Q1200,560 1120,540 Q1040,520 1000,560 Q960,600 880,580"
        fill="none" stroke="#d4bc94" stroke-width="3" stroke-linecap="round" opacity="0.6"/>

  <!-- Memory interchange visualization -->
  <g transform="translate(640, 280)" filter="url(#softShadow)">
    <!-- Central hub - larger organic shape -->
    <ellipse cx="0" cy="0" rx="90" ry="85" fill="url(#memoryGrad)" opacity="0.9"/>
    <ellipse cx="0" cy="0" rx="70" ry="65" fill="#fef9f3" opacity="0.5"/>

    <!-- Connection lines (curved, organic) -->
    <!-- Left connections -->
    <path d="M-90,0 Q-160,-30 -220,-60" fill="none" stroke="url(#connGrad)" stroke-width="4" stroke-linecap="round"/>
    <path d="M-85,-30 Q-140,20 -200,60" fill="none" stroke="url(#connGrad)" stroke-width="3" stroke-linecap="round"/>
    <path d="M-80,40 Q-150,80 -210,100" fill="none" stroke="url(#connGrad)" stroke-width="3" stroke-linecap="round"/>

    <!-- Right connections -->
    <path d="M90,0 Q160,30 220,60" fill="none" stroke="url(#connGrad)" stroke-width="4" stroke-linecap="round"/>
    <path d="M85,30 Q140,-20 200,-60" fill="none" stroke="url(#connGrad)" stroke-width="3" stroke-linecap="round"/>
    <path d="M80,-40 Q150,-80 210,-100" fill="none" stroke="url(#connGrad)" stroke-width="3" stroke-linecap="round"/>

    <!-- Memory nodes (left side - sources) -->
    <g transform="translate(-240, -80)">
      <ellipse cx="0" cy="0" rx="35" ry="32" fill="#c9a87c" opacity="0.8"/>
      <text x="0" y="5" font-family="Georgia, serif" font-size="14" fill="#5c4a32" text-anchor="middle">Mem0</text>
    </g>
    <g transform="translate(-220, 50)">
      <ellipse cx="0" cy="0" rx="32" ry="30" fill="#d4bc94" opacity="0.8"/>
      <text x="0" y="5" font-family="Georgia, serif" font-size="13" fill="#5c4a32" text-anchor="middle">Zep</text>
    </g>
    <g transform="translate(-230, 120)">
      <ellipse cx="0" cy="0" rx="30" ry="28" fill="#e8d5b7" opacity="0.8"/>
      <text x="0" y="5" font-family="Georgia, serif" font-size="12" fill="#5c4a32" text-anchor="middle">Letta</text>
    </g>

    <!-- Memory nodes (right side - targets) -->
    <g transform="translate(240, 80)">
      <ellipse cx="0" cy="0" rx="38" ry="35" fill="#c9a87c" opacity="0.8"/>
      <text x="0" y="5" font-family="Georgia, serif" font-size="14" fill="#5c4a32" text-anchor="middle">JSON-LD</text>
    </g>
    <g transform="translate(220, -50)">
      <ellipse cx="0" cy="0" rx="40" ry="32" fill="#d4bc94" opacity="0.8"/>
      <text x="0" y="5" font-family="Georgia, serif" font-size="13" fill="#5c4a32" text-anchor="middle">Markdown</text>
    </g>
    <g transform="translate(230, -120)">
      <ellipse cx="0" cy="0" rx="36" ry="30" fill="#e8d5b7" opacity="0.8"/>
      <text x="0" y="5" font-family="Georgia, serif" font-size="12" fill="#5c4a32" text-anchor="middle">Obsidian</text>
    </g>

    <!-- Central text -->
    <text x="0" y="-5" font-family="Georgia, serif" font-size="20" font-weight="bold" fill="#5c4a32" text-anchor="middle">MIF</text>
    <text x="0" y="18" font-family="Georgia, serif" font-size="11" fill="#7a6548" text-anchor="middle">interchange</text>
  </g>

  <!-- Title -->
  <text x="640" y="80" font-family="Georgia, serif" font-size="48" font-weight="bold" fill="#4a3c28" text-anchor="middle">
    Memory Interchange Format
  </text>

  <!-- Tagline -->
  <text x="640" y="125" font-family="Georgia, serif" font-size="22" fill="#7a6548" text-anchor="middle">
    Open Standard for Portable AI Memory
  </text>

  <!-- Features at bottom -->
  <g transform="translate(640, 540)">
    <text x="-320" y="0" font-family="Georgia, serif" font-size="16" fill="#8b7355" text-anchor="middle">JSON-LD</text>
    <text x="-160" y="0" font-family="Georgia, serif" font-size="16" fill="#8b7355" text-anchor="middle">Bi-Temporal</text>
    <text x="0" y="0" font-family="Georgia, serif" font-size="16" fill="#8b7355" text-anchor="middle">W3C PROV</text>
    <text x="160" y="0" font-family="Georgia, serif" font-size="16" fill="#8b7355" text-anchor="middle">Obsidian Native</text>
    <text x="320" y="0" font-family="Georgia, serif" font-size="16" fill="#8b7355" text-anchor="middle">Open Source</text>

    <!-- Decorative dots between features -->
    <circle cx="-240" cy="-3" r="3" fill="#c9a87c" opacity="0.6"/>
    <circle cx="-80" cy="-3" r="3" fill="#c9a87c" opacity="0.6"/>
    <circle cx="80" cy="-3" r="3" fill="#c9a87c" opacity="0.6"/>
    <circle cx="240" cy="-3" r="3" fill="#c9a87c" opacity="0.6"/>
  </g>

  <!-- Subtle decorative elements -->
  <circle cx="100" cy="580" r="40" fill="#e8d5b7" opacity="0.3"/>
  <circle cx="1180" cy="60" r="35" fill="#d4bc94" opacity="0.3"/>
  <circle cx="1220" cy="600" r="25" fill="#e8d5b7" opacity="0.2"/>
  <circle cx="60" cy="80" r="20" fill="#d4bc94" opacity="0.2"/>
</svg>
