<svg xmlns="http://www.w3.org/2000/svg" viewBox="0 0 1280 640" width="1280" height="640">
  <defs>
    <!-- Dark warm gradient -->
    <linearGradient id="bgGradientDark" x1="0%" y1="0%" x2="100%" y2="100%">
      <stop offset="0%" style="stop-color:#1a1612"/>
      <stop offset="50%" style="stop-color:#211c16"/>
      <stop offset="100%" style="stop-color:#1c1814"/>
    </linearGradient>

    <!-- Soft glow -->
    <filter id="softGlow" x="-50%" y="-50%" width="200%" height="200%">
      <feGaussianBlur in="SourceGraphic" stdDeviation="3" result="blur"/>
      <feMerge>
        <feMergeNode in="blur"/>
        <feMergeNode in="SourceGraphic"/>
      </feMerge>
    </filter>

    <!-- Memory node gradient dark -->
    <linearGradient id="memoryGradDark" x1="0%" y1="0%" x2="100%" y2="100%">
      <stop offset="0%" style="stop-color:#4a3c28"/>
      <stop offset="100%" style="stop-color:#3d3124"/>
    </linearGradient>

    <!-- Connection gradient dark -->
    <linearGradient id="connGradDark" x1="0%" y1="0%" x2="100%" y2="0%">
      <stop offset="0%" style="stop-color:#8b7355;stop-opacity:0.5"/>
      <stop offset="50%" style="stop-color:#a68b5b;stop-opacity:0.7"/>
      <stop offset="100%" style="stop-color:#8b7355;stop-opacity:0.5"/>
    </linearGradient>
  </defs>

  <!-- Background -->
  <rect width="1280" height="640" fill="url(#bgGradientDark)"/>

  <!-- Decorative organic shapes -->
  <path d="M0,120 Q80,80 160,100 Q240,120 280,80 Q320,40 400,60"
        fill="none" stroke="#3d3124" stroke-width="3" stroke-linecap="round" opacity="0.5"/>

  <path d="M1280,520 Q1200,560 1120,540 Q1040,520 1000,560 Q960,600 880,580"
        fill="none" stroke="#4a3c28" stroke-width="3" stroke-linecap="round" opacity="0.5"/>

  <!-- Memory interchange visualization -->
  <g transform="translate(640, 280)">
    <!-- Central hub -->
    <ellipse cx="0" cy="0" rx="90" ry="85" fill="url(#memoryGradDark)" opacity="0.9"/>
    <ellipse cx="0" cy="0" rx="70" ry="65" fill="#2a231c" opacity="0.6"/>

    <!-- Connection lines -->
    <path d="M-90,0 Q-160,-30 -220,-60" fill="none" stroke="url(#connGradDark)" stroke-width="4" stroke-linecap="round"/>
    <path d="M-85,-30 Q-140,20 -200,60" fill="none" stroke="url(#connGradDark)" stroke-width="3" stroke-linecap="round"/>
    <path d="M-80,40 Q-150,80 -210,100" fill="none" stroke="url(#connGradDark)" stroke-width="3" stroke-linecap="round"/>

    <path d="M90,0 Q160,30 220,60" fill="none" stroke="url(#connGradDark)" stroke-width="4" stroke-linecap="round"/>
    <path d="M85,30 Q140,-20 200,-60" fill="none" stroke="url(#connGradDark)" stroke-width="3" stroke-linecap="round"/>
    <path d="M80,-40 Q150,-80 210,-100" fill="none" stroke="url(#connGradDark)" stroke-width="3" stroke-linecap="round"/>

    <!-- Memory nodes (left side) -->
    <g transform="translate(-240, -80)">
      <ellipse cx="0" cy="0" rx="35" ry="32" fill="#5c4a32" opacity="0.8"/>
      <text x="0" y="5" font-family="Georgia, serif" font-size="14" fill="#d4bc94" text-anchor="middle">Mem0</text>
    </g>
    <g transform="translate(-220, 50)">
      <ellipse cx="0" cy="0" rx="32" ry="30" fill="#4a3c28" opacity="0.8"/>
      <text x="0" y="5" font-family="Georgia, serif" font-size="13" fill="#d4bc94" text-anchor="middle">Zep</text>
    </g>
    <g transform="translate(-230, 120)">
      <ellipse cx="0" cy="0" rx="30" ry="28" fill="#3d3124" opacity="0.8"/>
      <text x="0" y="5" font-family="Georgia, serif" font-size="12" fill="#c9a87c" text-anchor="middle">Letta</text>
    </g>

    <!-- Memory nodes (right side) -->
    <g transform="translate(240, 80)">
      <ellipse cx="0" cy="0" rx="38" ry="35" fill="#5c4a32" opacity="0.8"/>
      <text x="0" y="5" font-family="Georgia, serif" font-size="14" fill="#d4bc94" text-anchor="middle">JSON-LD</text>
    </g>
    <g transform="translate(220, -50)">
      <ellipse cx="0" cy="0" rx="40" ry="32" fill="#4a3c28" opacity="0.8"/>
      <text x="0" y="5" font-family="Georgia, serif" font-size="13" fill="#d4bc94" text-anchor="middle">Markdown</text>
    </g>
    <g transform="translate(230, -120)">
      <ellipse cx="0" cy="0" rx="36" ry="30" fill="#3d3124" opacity="0.8"/>
      <text x="0" y="5" font-family="Georgia, serif" font-size="12" fill="#c9a87c" text-anchor="middle">Obsidian</text>
    </g>

    <!-- Central text -->
    <text x="0" y="-5" font-family="Georgia, serif" font-size="20" font-weight="bold" fill="#e8d5b7" text-anchor="middle">MIF</text>
    <text x="0" y="18" font-family="Georgia, serif" font-size="11" fill="#c9a87c" text-anchor="middle">interchange</text>
  </g>

  <!-- Title -->
  <text x="640" y="80" font-family="Georgia, serif" font-size="48" font-weight="bold" fill="#e8d5b7" text-anchor="middle">
    Memory Interchange Format
  </text>

  <!-- Tagline -->
  <text x="640" y="125" font-family="Georgia, serif" font-size="22" fill="#c9a87c" text-anchor="middle">
    Open Standard for Portable AI Memory
  </text>

  <!-- Features at bottom -->
  <g transform="translate(640, 540)">
    <text x="-320" y="0" font-family="Georgia, serif" font-size="16" fill="#a68b5b" text-anchor="middle">JSON-LD</text>
    <text x="-160" y="0" font-family="Georgia, serif" font-size="16" fill="#a68b5b" text-anchor="middle">Bi-Temporal</text>
    <text x="0" y="0" font-family="Georgia, serif" font-size="16" fill="#a68b5b" text-anchor="middle">W3C PROV</text>
    <text x="160" y="0" font-family="Georgia, serif" font-size="16" fill="#a68b5b" text-anchor="middle">Obsidian Native</text>
    <text x="320" y="0" font-family="Georgia, serif" font-size="16" fill="#a68b5b" text-anchor="middle">Open Source</text>

    <circle cx="-240" cy="-3" r="3" fill="#8b7355" opacity="0.6"/>
    <circle cx="-80" cy="-3" r="3" fill="#8b7355" opacity="0.6"/>
    <circle cx="80" cy="-3" r="3" fill="#8b7355" opacity="0.6"/>
    <circle cx="240" cy="-3" r="3" fill="#8b7355" opacity="0.6"/>
  </g>

  <!-- Subtle decorative elements -->
  <circle cx="100" cy="580" r="40" fill="#3d3124" opacity="0.3"/>
  <circle cx="1180" cy="60" r="35" fill="#4a3c28" opacity="0.3"/>
  <circle cx="1220" cy="600" r="25" fill="#3d3124" opacity="0.2"/>
  <circle cx="60" cy="80" r="20" fill="#4a3c28" opacity="0.2"/>
</svg>
